PathFileType	4	(X/Y/Z)	Patient4_TMGait_0pt6_01_right_17.trc.trc
DataRate	CameraRate	NumFrames	NumMarkers	Units	OrigDataRate	OrigDataStartFrame	OrigNumFrames
84.848484848485	84.848484848485	4	33	mm	84.848484848485	36	       141
Frame#	Time	Sacral			L.Shoulder			Chest			R.Shoulder			Neck			R.ASIS			L.ASIS			R.Thigh.Superior			R.Thigh.Lateral			R.Thigh.Inferior			R.Patella			L.Thigh.Superior			L.Thigh.Lateral			L.Thigh.Inferior			L.Patella			L.Shank.Superior			L.Shank.Lateral			L.Shank.Inferior			R.Shank.Superior			R.Shank.Lateral			R.Shank.Inferior			R.Heel			R.Midfoot.Superior			R.Midfoot.Lateral			R.Toe			L.Heel			L.Midfoot.Lateral			L.Midfoot.Superior			L.Toe			L.Elbow			L.Wrist			R.Elbow			R.Wrist			
		X1	Y1	Z1	X2	Y2	Z2	X3	Y3	Z3	X4	Y4	Z4	X5	Y5	Z5	X6	Y6	Z6	X7	Y7	Z7	X8	Y8	Z8	X9	Y9	Z9	X10	Y10	Z10	X11	Y11	Z11	X12	Y12	Z12	X13	Y13	Z13	X14	Y14	Z14	X15	Y15	Z15	X16	Y16	Z16	X17	Y17	Z17	X18	Y18	Z18	X19	Y19	Z19	X20	Y20	Z20	X21	Y21	Z21	X22	Y22	Z22	X23	Y23	Z23	X24	Y24	Z24	X25	Y25	Z25	X26	Y26	Z26	X27	Y27	Z27	X28	Y28	Z28	X29	Y29	Z29	X30	Y30	Z30	X31	Y31	Z31	X32	Y32	Z32	X33	Y33	Z33	

36	20.542500000000	647.304109868051	998.099809609563	478.661638304246	813.632442122093	1434.084843806363	306.648859200318	908.232444908977	1366.388047627156	473.204832933418	810.803562020389	1431.870540698402	641.577793701290	783.077445530553	1492.000939791243	459.462368095406	869.071396733553	945.696894680652	609.775097234888	868.791451845571	955.829777279651	335.316595514150	927.185308010914	748.243207899843	581.050687537792	851.649818704671	634.630121776899	636.572752924114	934.449258914712	588.159506275164	558.050945642853	941.479621407622	500.249099881727	563.370884691357	909.360223319492	735.750223851786	365.583564814422	826.026963904951	620.552271180511	297.010696523888	909.598761245702	536.792102355517	359.563691282358	901.258424309881	450.776392913939	357.748156626316	831.840332587557	393.401492958973	351.081070449084	692.712088636584	350.434726816213	297.917254063435	674.201834913338	224.711201014524	358.292041963606	920.912792030723	410.122386297782	569.179045837204	856.580616142719	300.829106534500	627.650901944362	907.304374812447	209.826254751697	565.494530508251	784.480340032584	41.928077238779	532.485304967910	954.475976619618	97.522037678836	570.148636025316	866.819709689599	36.630490411583	608.251137325282	1074.836443202570	45.683364173457	599.432536620331	481.860937043502	160.953546442438	392.168007954474	542.002443887445	109.614163042780	319.074862066637	644.443442069297	122.227251587953	342.883832924845	725.421506311517	30.874120763155	329.758577106572	836.223436432448	1080.325874651410	188.130039121788	1043.248894083683	920.930398269758	187.823458501677	731.991437664571	1088.510736708687	745.443391592118	787.863110650905	833.458096578097	757.113275531684	
37	20.554285714286	647.304882745437	998.720546135701	482.096563692305	812.290811096705	1434.290106752092	308.151507436637	908.247125751024	1366.998722914615	474.108989063083	812.204445876268	1432.783261993534	643.117705921244	782.940965410637	1492.556514505565	460.970832690878	869.728828912929	946.375072366641	611.814204023754	868.065835210562	956.209675002932	337.313453332825	925.770033088749	747.665398322512	583.754490285903	848.586142720665	634.596940004867	638.530057891320	931.011080315416	587.520550122618	560.025768810767	936.993288390811	499.747303496251	564.638839925468	914.182175073695	738.859199434808	367.791677734779	835.944170362057	621.713046091124	297.789120411257	922.135166710786	539.987179310557	360.472287279764	915.350637806806	452.929886412951	358.164311628290	844.384791081019	395.491547458825	351.335002402877	703.870349655752	357.352609433512	297.909987320181	681.425098052800	231.842476423957	357.485816690905	916.040904843663	409.744610564309	570.243798615278	851.266333850580	300.662892574956	628.534512551102	901.233487453169	209.566260884712	565.865152727422	777.489193433149	41.978875872050	532.603729545173	947.594977984159	97.473153832247	570.308614007765	859.799176272332	36.607565369200	608.368642840661	1067.875225452326	45.369595959003	599.616338909258	486.907166198866	178.973106357293	390.335155568494	543.919075375560	122.908713072951	317.837043605210	647.129591567636	128.236483459243	342.083541278730	720.462772510954	29.571865684843	330.030167263309	834.012802275301	1079.732039477051	191.768970452454	1032.823579938467	909.648868520153	190.973476619546	740.646292571820	1087.981406675209	749.631563224782	808.152208353002	835.673043977226	759.749106228334	
38	20.566071428571	647.106288911219	999.287568147497	485.388591059104	810.832148219038	1434.298842905258	309.513946390822	908.199892322287	1367.465654400037	474.854253624921	813.573538261024	1433.545785893710	644.546060904107	782.776101338626	1492.985556038968	462.347002291342	870.217237626410	946.867789542305	613.726395708685	867.183939977882	956.444551970530	339.197929577110	924.266449871078	747.026920586470	586.332521456488	845.563449015819	634.494511335254	640.391977668886	927.580894788508	586.869329529917	561.886878664808	932.542054960677	499.218606862889	565.868709512010	918.688201609638	742.129445869944	369.871613381582	845.428749358952	623.324686566277	298.486366985482	934.038861676041	543.722477020171	361.427950493873	928.989802389163	455.737978512525	358.757121927742	856.773282097338	398.089057227274	351.726519411857	715.227434917331	364.215134738510	297.881459504486	689.231726708130	239.004564255327	356.870461579991	911.194992271428	409.318067467258	571.251527373212	845.939023972012	300.458245580166	629.375702754623	895.144092193585	209.268095299697	566.205606246888	770.420948097509	42.021359024236	532.714750333949	940.657947792043	97.382758207182	570.431843567376	852.708396580611	36.574912640263	608.480206654619	1060.851774486628	45.007777308855	599.759449673230	493.112549863373	196.128041004003	388.564442261307	547.193511371089	135.971652947444	316.607545369440	650.806655305583	134.538124692810	341.443720748578	716.854178812994	28.515515221767	330.250484710954	831.725459351430	1078.915675696660	195.252691450475	1021.559073559488	898.483900343281	194.101023609739	749.474270735655	1087.563409358130	753.910533203297	828.945333739740	838.666001554957	762.272987799307	
39	20.577857142857	646.728404039259	999.835213564890	488.512742793890	809.333301002260	1434.156982563167	310.738582622081	908.116132639488	1367.809392535391	475.462618852235	814.912934684583	1434.203693945689	645.853928516432	782.616446291626	1493.322717241531	463.589013622604	870.527053652045	947.198048699900	615.527673518545	866.153371942570	956.580457238696	340.986985134392	922.707359249912	746.367287600404	588.700664940342	842.652545596868	634.356200600709	642.132385654252	924.200658747736	586.225122835165	563.583658978839	928.170589706621	498.675357698393	567.031544653700	922.802491088846	745.559073352966	371.863907463474	854.337981082799	625.400823091744	299.157800550976	945.164432277415	547.972227827732	362.455087186017	942.015787373498	459.172874998562	359.495972244849	868.844693179512	401.168545153607	352.245133639891	726.574312959708	370.856808401776	297.884043840340	697.571359136365	245.947090789045	356.458035409237	906.415005664757	408.859218342693	572.180787064856	840.638455522256	300.241002104371	630.165634253942	889.061954562139	208.950075307294	566.513644462629	763.299324619144	42.062238900777	532.826108628864	933.680130120702	97.268658212736	570.523846486980	845.572853003579	36.542606248405	608.591915560609	1053.786579450055	44.630108251632	599.870252900977	500.364133109672	211.629027957003	386.978373965281	551.894994700242	148.168272358113	315.452717090862	655.628855624493	140.858086360660	340.930217140233	715.159155229313	27.852332231819	330.321751407821	829.288939289216	1077.918491411642	198.602875154271	1009.437468859301	887.599881501149	197.191792827106	758.482090952682	1087.302668207876	758.190430886204	850.116456389405	842.528395779301	764.620121743050	
